<?xml version="1.0" standalone="no"?>
<!DOCTYPE svg PUBLIC "-//W3C//DTD SVG 20010904//EN"
 "http://www.w3.org/TR/2001/REC-SVG-20010904/DTD/svg10.dtd">
<svg version="1.0" xmlns="http://www.w3.org/2000/svg"
 width="1246.000000pt" height="398.000000pt" viewBox="0 0 1246.000000 398.000000"
 preserveAspectRatio="xMidYMid meet">

<g transform="translate(0.000000,398.000000) scale(0.100000,-0.100000)"
fill="#000000" stroke="none">
<path d="M3308 3901 c-11 -18 -19 -20 -63 -15 -50 6 -51 5 -145 -64 -156 -116
-224 -226 -224 -367 -1 -72 3 -86 33 -142 51 -94 174 -214 263 -256 183 -87
295 -74 456 54 72 57 147 154 195 249 29 59 32 72 32 160 0 124 -26 183 -122
279 -98 97 -140 114 -290 119 -115 4 -122 3 -135 -17z m266 -77 c60 -21 152
-109 187 -180 19 -39 24 -65 24 -125 0 -65 -4 -84 -33 -140 -47 -94 -113 -172
-190 -229 -120 -89 -192 -98 -327 -44 -54 22 -87 44 -148 103 -108 103 -137
155 -137 246 0 118 51 202 186 305 74 57 81 60 120 54 32 -4 44 -2 50 9 5 8
18 17 29 20 37 11 189 -2 239 -19z"/>
<path d="M3297 3463 c-12 -12 -7 -50 7 -63 20 -16 56 -9 70 13 9 15 7 22 -13
38 -23 19 -52 25 -64 12z"/>
<path d="M2008 3860 c-28 -15 -44 -34 -64 -78 -21 -45 -34 -61 -65 -75 -52
-25 -86 -60 -132 -138 -85 -144 -98 -276 -40 -402 76 -161 209 -236 398 -224
168 10 334 84 432 191 86 93 94 180 34 356 -66 197 -120 279 -219 333 -106 58
-271 75 -344 37z m171 -61 c93 -15 154 -44 206 -100 52 -56 78 -108 125 -254
34 -107 35 -166 5 -225 -32 -62 -147 -140 -265 -181 -50 -17 -90 -22 -170 -23
-97 -1 -109 1 -163 28 -68 35 -111 80 -144 152 -50 110 -35 226 45 350 52 81
83 104 139 104 77 0 107 32 61 65 -22 14 -22 17 -8 43 9 15 31 32 50 39 44 15
42 15 119 2z"/>
<path d="M2090 3397 c-34 -17 -45 -28 -45 -46 0 -32 29 -50 53 -34 9 7 34 22
55 33 29 16 38 26 35 43 -4 30 -42 32 -98 4z"/>
<path d="M12270 3065 c-40 -20 -148 -71 -235 -110 -44 -20 -134 -67 -200 -104
-202 -115 -320 -174 -574 -291 -287 -132 -330 -148 -435 -163 -87 -13 -111
-31 -86 -62 12 -15 26 -17 85 -12 38 4 102 17 140 30 138 47 663 299 880 422
148 84 262 140 308 153 35 10 38 9 31 -6 -34 -80 -89 -263 -109 -365 -50 -254
-72 -781 -55 -1312 6 -201 14 -321 24 -365 9 -36 21 -101 27 -145 6 -44 22
-124 35 -179 14 -54 23 -100 21 -102 -2 -2 -41 24 -88 59 -46 34 -198 131
-337 215 -350 213 -483 266 -709 282 l-134 9 -54 -30 c-58 -32 -72 -53 -53
-76 14 -17 52 -13 113 11 79 30 240 11 400 -49 129 -48 163 -66 352 -181 243
-149 313 -194 379 -245 84 -65 169 -111 196 -107 21 3 23 8 21 53 -1 28 -9 75
-18 105 -17 61 -39 171 -54 270 -5 36 -16 97 -25 135 -21 99 -30 708 -17 1090
14 404 38 572 111 780 40 112 88 215 101 215 5 0 21 11 35 25 48 48 -8 85 -76
50z"/>
<path d="M8617 2896 c-73 -30 -185 -97 -259 -153 l-58 -44 6 -57 c4 -36 -4
-129 -20 -252 -36 -274 -48 -500 -45 -830 l3 -285 -28 -90 c-35 -115 -46 -262
-23 -317 14 -32 21 -38 47 -38 95 0 387 176 425 257 16 33 17 60 13 236 l-6
199 35 69 c19 38 38 69 43 69 20 0 81 -64 114 -118 39 -66 81 -189 96 -282 14
-94 12 -260 -5 -374 -8 -54 -12 -102 -9 -107 31 -50 429 176 421 239 -1 9 5
69 12 133 35 295 -28 579 -159 709 -93 94 -196 87 -428 -31 l-135 -68 6 262
c7 281 17 411 48 632 19 132 21 142 52 173 l32 33 -33 30 c-39 35 -68 36 -145
5z"/>
<path d="M221 2884 c-13 -10 -21 -26 -21 -44 0 -41 26 -238 55 -415 34 -208
45 -366 46 -653 0 -136 4 -301 9 -367 28 -410 33 -650 22 -945 -6 -166 -8
-308 -5 -316 6 -17 45 -18 61 -2 7 7 12 37 12 68 0 71 46 170 119 257 58 71
270 218 454 317 134 71 348 146 436 151 84 6 109 26 75 59 -48 48 -330 -30
-556 -153 -243 -133 -430 -271 -503 -374 l-20 -27 -1 357 c-1 206 -6 407 -13
473 -7 63 -16 300 -21 525 -9 416 -15 493 -50 690 -10 61 -22 139 -25 175 -3
36 -8 80 -11 99 -5 33 -5 33 88 -51 344 -310 621 -435 913 -413 55 5 128 7
163 7 63 -2 63 -2 60 25 -6 50 -39 59 -165 44 -123 -15 -223 -6 -352 29 -159
44 -380 186 -575 369 -125 118 -160 139 -195 115z"/>
<path d="M3964 2746 c-103 -32 -334 -175 -368 -228 -18 -27 -33 -168 -41 -373
-3 -82 -8 -181 -10 -220 -11 -174 -25 -538 -28 -722 l-3 -203 29 0 c60 0 297
131 363 202 25 26 33 45 38 92 4 33 20 101 37 150 33 100 138 326 150 326 16
0 80 -106 109 -182 41 -105 57 -211 70 -450 6 -111 13 -209 16 -217 12 -38
194 30 357 135 73 47 147 111 147 127 0 5 -19 6 -44 3 l-43 -7 -7 123 c-18
332 -39 449 -107 587 -48 97 -111 165 -170 182 -32 10 -50 9 -106 -6 -85 -23
-213 -87 -320 -159 -64 -44 -83 -52 -83 -39 0 10 4 95 9 188 6 94 12 233 16
310 10 245 10 244 66 288 27 20 49 43 49 50 0 11 -69 59 -81 56 -2 0 -22 -6
-45 -13z"/>
<path d="M10290 2586 c-112 -41 -310 -163 -351 -215 -19 -24 -19 -26 -3 -38
49 -36 170 2 326 102 118 76 169 135 118 135 -11 0 -23 7 -26 15 -7 18 -17 18
-64 1z"/>
<path d="M2745 2534 c-312 -69 -723 -349 -795 -542 -25 -67 -25 -85 1 -139 27
-56 102 -116 254 -205 339 -199 448 -273 545 -369 54 -55 120 -138 120 -153 0
-19 -251 2 -445 37 l-120 22 -5 60 c-5 57 -6 60 -30 56 -88 -12 -370 -183
-386 -234 -9 -30 -6 -109 5 -120 13 -13 165 -43 320 -62 182 -23 440 -17 556
14 191 51 484 230 529 325 22 47 20 84 -9 142 -70 141 -243 281 -615 497 -259
151 -328 217 -315 302 9 63 48 121 86 129 54 10 209 5 324 -13 96 -14 110 -18
108 -35 -4 -46 153 11 307 112 126 82 165 130 123 147 -96 37 -441 55 -558 29z"/>
<path d="M7575 2235 c-231 -62 -575 -283 -629 -404 -13 -27 -16 -51 -12 -74
14 -72 87 -131 437 -347 145 -90 267 -199 304 -273 l25 -52 -27 -8 c-41 -12
-200 0 -256 19 -32 11 -52 25 -61 43 -14 26 -33 116 -38 176 -3 27 -6 30 -36
28 -44 -2 -198 -80 -297 -151 l-80 -58 1 -79 c1 -51 8 -98 21 -130 17 -46 23
-52 75 -73 112 -44 329 -39 535 13 150 38 373 156 498 262 92 78 107 153 53
254 -56 106 -169 196 -503 399 -59 36 -134 90 -166 120 -58 55 -84 100 -57
100 32 0 85 -22 145 -61 l65 -42 49 16 c109 34 349 187 349 222 0 17 -100 87
-149 103 -45 16 -184 14 -246 -3z"/>
<path d="M5350 2146 c-97 -36 -274 -143 -327 -198 -25 -26 -37 -53 -55 -123
-30 -121 -33 -423 -5 -524 39 -142 124 -269 211 -313 57 -29 148 -35 221 -13
164 47 392 192 527 334 l94 99 34 -101 c43 -128 80 -183 149 -224 77 -46 112
-51 180 -23 122 50 321 182 321 214 0 6 -24 23 -53 38 -74 36 -116 75 -138
126 -41 94 -83 225 -139 430 -32 118 -66 224 -75 238 -20 32 -39 27 -180 -42
-123 -60 -240 -143 -266 -189 -10 -16 -26 -84 -38 -150 -22 -136 -65 -265
-122 -375 -56 -106 -71 -124 -100 -117 -42 11 -118 97 -160 182 -59 120 -73
206 -66 400 4 88 9 172 13 187 4 17 27 43 60 68 60 45 67 66 28 80 -33 13 -71
12 -114 -4z"/>
<path d="M11544 2109 c-121 -27 -371 -61 -514 -68 -69 -3 -131 -10 -137 -14
-22 -14 -15 -55 13 -73 24 -16 27 -16 54 -1 18 11 50 17 87 17 80 0 349 35
517 68 146 29 174 44 147 76 -17 21 -64 19 -167 -5z"/>
<path d="M1105 2050 c-104 -16 -231 -29 -281 -30 -73 0 -96 -4 -114 -18 -19
-15 -21 -22 -11 -39 21 -40 25 -40 406 13 98 14 192 23 207 20 39 -8 88 34 72
61 -16 26 -63 25 -279 -7z"/>
<path d="M10044 1816 c-98 -47 -225 -128 -262 -169 -35 -38 -43 -83 -49 -298
-6 -207 7 -393 33 -486 14 -52 15 -53 52 -53 70 0 297 125 381 209 49 49 53
73 14 69 -26 -3 -28 0 -42 67 -10 50 -14 145 -15 328 l-1 259 25 20 c54 42 90
80 84 89 -3 5 -33 9 -67 9 -52 0 -76 -7 -153 -44z"/>
<path d="M10923 1743 c-21 -8 -16 -61 6 -73 12 -6 118 -10 275 -10 245 0 256
-1 266 -20 13 -24 55 -26 105 -6 43 18 46 48 8 73 -24 16 -62 19 -323 23 -162
3 -302 9 -310 12 -8 4 -21 4 -27 1z"/>
<path d="M1155 1661 c-85 -26 -319 -117 -376 -147 -30 -15 -42 -38 -34 -65 7
-23 38 -25 55 -4 6 8 22 17 33 21 12 3 83 30 157 59 74 30 149 57 165 61 29 7
30 7 13 -13 -10 -11 -18 -29 -18 -40 0 -48 53 -29 118 41 45 49 52 75 26 100
-20 21 -33 20 -139 -13z"/>
<path d="M10750 1435 c-22 -26 -1 -47 61 -61 77 -18 279 -34 436 -34 83 0 140
-4 152 -11 24 -15 68 -4 81 21 8 15 6 24 -8 38 -17 17 -44 20 -258 26 -131 4
-264 11 -294 15 -152 24 -155 24 -170 6z"/>
<path d="M1220 1360 c-139 -49 -327 -147 -382 -201 -44 -41 -48 -50 -39 -68
17 -30 37 -26 86 17 58 50 162 105 330 173 125 50 140 59 140 80 0 34 -33 34
-135 -1z"/>
</g>
</svg>
